<mxfile host="Electron" agent="Mozilla/5.0 (Windows NT 10.0; Win64; x64) AppleWebKit/537.36 (KHTML, like Gecko) draw.io/26.2.2 Chrome/134.0.6998.178 Electron/35.1.2 Safari/537.36" version="26.2.2">
  <diagram name="Page-1" id="N7LLmrm-W-DkEfKxdUkZ">
    <mxGraphModel dx="2255" dy="841" grid="1" gridSize="10" guides="1" tooltips="1" connect="1" arrows="1" fold="1" page="1" pageScale="1" pageWidth="827" pageHeight="1169" math="0" shadow="0">
      <root>
        <mxCell id="0" />
        <mxCell id="1" parent="0" />
        <mxCell id="KQqKRKavgJABayDVtdA4-1" value="Rental" style="swimlane;childLayout=stackLayout;horizontal=1;startSize=50;horizontalStack=0;rounded=1;fontSize=14;fontStyle=0;strokeWidth=2;resizeParent=0;resizeLast=1;shadow=0;dashed=0;align=center;arcSize=4;whiteSpace=wrap;html=1;" vertex="1" parent="1">
          <mxGeometry x="300" y="650" width="160" height="120" as="geometry" />
        </mxCell>
        <mxCell id="KQqKRKavgJABayDVtdA4-2" value="&lt;br&gt;&lt;div&gt;&lt;span style=&quot;background-color: transparent; color: light-dark(rgb(0, 0, 0), rgb(255, 255, 255));&quot;&gt;Days Rent (interger)&lt;/span&gt;&lt;/div&gt;&lt;div&gt;&lt;span style=&quot;background-color: transparent; color: light-dark(rgb(0, 0, 0), rgb(255, 255, 255));&quot;&gt;return day (integer)&lt;/span&gt;&lt;/div&gt;" style="align=left;strokeColor=none;fillColor=none;spacingLeft=4;spacingRight=4;fontSize=12;verticalAlign=top;resizable=0;rotatable=0;part=1;html=1;whiteSpace=wrap;" vertex="1" parent="KQqKRKavgJABayDVtdA4-1">
          <mxGeometry y="50" width="160" height="70" as="geometry" />
        </mxCell>
        <mxCell id="KQqKRKavgJABayDVtdA4-3" value="Coupon" style="swimlane;childLayout=stackLayout;horizontal=1;startSize=50;horizontalStack=0;rounded=1;fontSize=14;fontStyle=0;strokeWidth=2;resizeParent=0;resizeLast=1;shadow=0;dashed=0;align=center;arcSize=4;whiteSpace=wrap;html=1;" vertex="1" parent="1">
          <mxGeometry x="350" y="390" width="160" height="120" as="geometry" />
        </mxCell>
        <mxCell id="KQqKRKavgJABayDVtdA4-4" value="id (integer)&lt;div&gt;name (string)&lt;/div&gt;&lt;div&gt;discount (integer)&lt;/div&gt;" style="align=left;strokeColor=none;fillColor=none;spacingLeft=4;spacingRight=4;fontSize=12;verticalAlign=top;resizable=0;rotatable=0;part=1;html=1;whiteSpace=wrap;" vertex="1" parent="KQqKRKavgJABayDVtdA4-3">
          <mxGeometry y="50" width="160" height="70" as="geometry" />
        </mxCell>
        <mxCell id="KQqKRKavgJABayDVtdA4-5" value="Movie" style="swimlane;childLayout=stackLayout;horizontal=1;startSize=50;horizontalStack=0;rounded=1;fontSize=14;fontStyle=0;strokeWidth=2;resizeParent=0;resizeLast=1;shadow=0;dashed=0;align=center;arcSize=4;whiteSpace=wrap;html=1;" vertex="1" parent="1">
          <mxGeometry x="80" y="450" width="160" height="140" as="geometry" />
        </mxCell>
        <mxCell id="KQqKRKavgJABayDVtdA4-6" value="Title (string)&lt;div&gt;quantity (interger)&lt;/div&gt;&lt;div&gt;Daily Rental Rate (float)&lt;/div&gt;&lt;div&gt;Qr Code (string)&lt;/div&gt;" style="align=left;strokeColor=none;fillColor=none;spacingLeft=4;spacingRight=4;fontSize=12;verticalAlign=top;resizable=0;rotatable=0;part=1;html=1;whiteSpace=wrap;" vertex="1" parent="KQqKRKavgJABayDVtdA4-5">
          <mxGeometry y="50" width="160" height="90" as="geometry" />
        </mxCell>
        <mxCell id="KQqKRKavgJABayDVtdA4-7" value="Users" style="swimlane;childLayout=stackLayout;horizontal=1;startSize=50;horizontalStack=0;rounded=1;fontSize=14;fontStyle=0;strokeWidth=2;resizeParent=0;resizeLast=1;shadow=0;dashed=0;align=center;arcSize=4;whiteSpace=wrap;html=1;" vertex="1" parent="1">
          <mxGeometry x="-140" y="760" width="160" height="120" as="geometry" />
        </mxCell>
        <mxCell id="KQqKRKavgJABayDVtdA4-8" value="username (string)&lt;div&gt;password (password)&lt;br&gt;&lt;div&gt;&lt;br&gt;&lt;/div&gt;&lt;/div&gt;" style="align=left;strokeColor=none;fillColor=none;spacingLeft=4;spacingRight=4;fontSize=12;verticalAlign=top;resizable=0;rotatable=0;part=1;html=1;whiteSpace=wrap;" vertex="1" parent="KQqKRKavgJABayDVtdA4-7">
          <mxGeometry y="50" width="160" height="70" as="geometry" />
        </mxCell>
        <mxCell id="KQqKRKavgJABayDVtdA4-9" value="Customer" style="swimlane;childLayout=stackLayout;horizontal=1;startSize=50;horizontalStack=0;rounded=1;fontSize=14;fontStyle=0;strokeWidth=2;resizeParent=0;resizeLast=1;shadow=0;dashed=0;align=center;arcSize=4;whiteSpace=wrap;html=1;" vertex="1" parent="1">
          <mxGeometry x="470" y="890" width="160" height="120" as="geometry" />
        </mxCell>
        <mxCell id="KQqKRKavgJABayDVtdA4-10" value="name (string)&lt;div&gt;phoneNumber (string)&lt;/div&gt;&lt;div&gt;Email (string)&lt;/div&gt;" style="align=left;strokeColor=none;fillColor=none;spacingLeft=4;spacingRight=4;fontSize=12;verticalAlign=top;resizable=0;rotatable=0;part=1;html=1;whiteSpace=wrap;" vertex="1" parent="KQqKRKavgJABayDVtdA4-9">
          <mxGeometry y="50" width="160" height="70" as="geometry" />
        </mxCell>
        <mxCell id="KQqKRKavgJABayDVtdA4-11" value="" style="edgeStyle=entityRelationEdgeStyle;fontSize=12;html=1;endArrow=ERzeroToOne;startArrow=ERone;rounded=0;startFill=0;endFill=0;" edge="1" parent="1" source="KQqKRKavgJABayDVtdA4-1" target="KQqKRKavgJABayDVtdA4-3">
          <mxGeometry width="100" height="100" relative="1" as="geometry">
            <mxPoint x="510" y="710" as="sourcePoint" />
            <mxPoint x="550" y="450" as="targetPoint" />
            <Array as="points">
              <mxPoint x="360" y="470" />
              <mxPoint x="670" y="220" />
              <mxPoint x="330" y="460" />
            </Array>
          </mxGeometry>
        </mxCell>
        <mxCell id="KQqKRKavgJABayDVtdA4-22" value="applied to" style="edgeLabel;html=1;align=center;verticalAlign=middle;resizable=0;points=[];" vertex="1" connectable="0" parent="KQqKRKavgJABayDVtdA4-11">
          <mxGeometry x="-0.0286" y="3" relative="1" as="geometry">
            <mxPoint as="offset" />
          </mxGeometry>
        </mxCell>
        <mxCell id="KQqKRKavgJABayDVtdA4-13" value="" style="edgeStyle=entityRelationEdgeStyle;fontSize=12;html=1;endArrow=ERmany;startArrow=ERone;rounded=0;startFill=0;" edge="1" parent="1" source="KQqKRKavgJABayDVtdA4-5" target="KQqKRKavgJABayDVtdA4-1">
          <mxGeometry width="100" height="100" relative="1" as="geometry">
            <mxPoint x="250" y="620" as="sourcePoint" />
            <mxPoint x="350" y="520" as="targetPoint" />
            <Array as="points">
              <mxPoint x="210" y="570" />
            </Array>
          </mxGeometry>
        </mxCell>
        <mxCell id="KQqKRKavgJABayDVtdA4-14" value="" style="edgeStyle=entityRelationEdgeStyle;fontSize=12;html=1;endArrow=ERmany;startArrow=ERone;rounded=0;startFill=0;" edge="1" parent="1" source="KQqKRKavgJABayDVtdA4-7" target="KQqKRKavgJABayDVtdA4-5">
          <mxGeometry width="100" height="100" relative="1" as="geometry">
            <mxPoint x="-10" y="870" as="sourcePoint" />
            <mxPoint x="60" y="490" as="targetPoint" />
            <Array as="points">
              <mxPoint x="-50" y="500" />
            </Array>
          </mxGeometry>
        </mxCell>
        <mxCell id="KQqKRKavgJABayDVtdA4-19" value="add/delete/update" style="edgeLabel;html=1;align=center;verticalAlign=middle;resizable=0;points=[];" vertex="1" connectable="0" parent="KQqKRKavgJABayDVtdA4-14">
          <mxGeometry x="-0.1674" relative="1" as="geometry">
            <mxPoint as="offset" />
          </mxGeometry>
        </mxCell>
        <mxCell id="KQqKRKavgJABayDVtdA4-15" value="" style="edgeStyle=entityRelationEdgeStyle;fontSize=12;html=1;endArrow=ERone;startArrow=ERmany;rounded=0;endFill=0;" edge="1" parent="1" source="KQqKRKavgJABayDVtdA4-1" target="KQqKRKavgJABayDVtdA4-9">
          <mxGeometry width="100" height="100" relative="1" as="geometry">
            <mxPoint x="400" y="920" as="sourcePoint" />
            <mxPoint x="460" y="950" as="targetPoint" />
          </mxGeometry>
        </mxCell>
        <mxCell id="KQqKRKavgJABayDVtdA4-23" value="Role" style="swimlane;childLayout=stackLayout;horizontal=1;startSize=50;horizontalStack=0;rounded=1;fontSize=14;fontStyle=0;strokeWidth=2;resizeParent=0;resizeLast=1;shadow=0;dashed=0;align=center;arcSize=4;whiteSpace=wrap;html=1;" vertex="1" parent="1">
          <mxGeometry x="-180" y="1020" width="160" height="120" as="geometry" />
        </mxCell>
        <mxCell id="KQqKRKavgJABayDVtdA4-24" value="id (integer)&lt;div&gt;description (string)&lt;/div&gt;" style="align=left;strokeColor=none;fillColor=none;spacingLeft=4;spacingRight=4;fontSize=12;verticalAlign=top;resizable=0;rotatable=0;part=1;html=1;whiteSpace=wrap;" vertex="1" parent="KQqKRKavgJABayDVtdA4-23">
          <mxGeometry y="50" width="160" height="70" as="geometry" />
        </mxCell>
        <mxCell id="KQqKRKavgJABayDVtdA4-25" value="" style="edgeStyle=entityRelationEdgeStyle;fontSize=12;html=1;endArrow=ERmany;startArrow=ERone;rounded=0;endFill=0;startFill=0;" edge="1" parent="1" source="KQqKRKavgJABayDVtdA4-23" target="KQqKRKavgJABayDVtdA4-8">
          <mxGeometry width="100" height="100" relative="1" as="geometry">
            <mxPoint x="10" y="1070" as="sourcePoint" />
            <mxPoint x="20" y="860" as="targetPoint" />
            <Array as="points">
              <mxPoint x="20" y="930" />
            </Array>
          </mxGeometry>
        </mxCell>
        <mxCell id="KQqKRKavgJABayDVtdA4-28" value="Belongs to" style="edgeLabel;html=1;align=center;verticalAlign=middle;resizable=0;points=[];" vertex="1" connectable="0" parent="KQqKRKavgJABayDVtdA4-25">
          <mxGeometry x="0.0593" relative="1" as="geometry">
            <mxPoint as="offset" />
          </mxGeometry>
        </mxCell>
      </root>
    </mxGraphModel>
  </diagram>
</mxfile>
